<?xml version="1.0" encoding="UTF-8" standalone="no"?>
<svg
   xmlns:dc="http://purl.org/dc/elements/1.1/"
   xmlns:cc="http://creativecommons.org/ns#"
   xmlns:rdf="http://www.w3.org/1999/02/22-rdf-syntax-ns#"
   xmlns:svg="http://www.w3.org/2000/svg"
   xmlns="http://www.w3.org/2000/svg"
   xmlns:sodipodi="http://sodipodi.sourceforge.net/DTD/sodipodi-0.dtd"
   xmlns:inkscape="http://www.inkscape.org/namespaces/inkscape"
   height="48"
   viewBox="0 0 48 48"
   width="48"
   version="1.1"
   id="svg6"
   sodipodi:docname="opacity.svg"
   inkscape:version="0.92.4 (5da689c313, 2019-01-14)">
  <metadata
     id="metadata12">
    <rdf:RDF>
      <cc:Work
         rdf:about="">
        <dc:format>image/svg+xml</dc:format>
        <dc:type
           rdf:resource="http://purl.org/dc/dcmitype/StillImage" />
        <dc:title></dc:title>
      </cc:Work>
    </rdf:RDF>
  </metadata>
  <defs
     id="defs10" />
  <sodipodi:namedview
     pagecolor="#ffffff"
     bordercolor="#666666"
     borderopacity="1"
     objecttolerance="10"
     gridtolerance="10"
     guidetolerance="10"
     inkscape:pageopacity="0"
     inkscape:pageshadow="2"
     inkscape:window-width="1920"
     inkscape:window-height="1029"
     id="namedview8"
     showgrid="false"
     inkscape:zoom="4"
     inkscape:cx="37.809154"
     inkscape:cy="13.834037"
     inkscape:window-x="0"
     inkscape:window-y="120"
     inkscape:window-maximized="1"
     inkscape:current-layer="svg6" />
  <path
     d="M0 0h48v48h-48z"
     fill="none"
     id="path2" />
  <path
     inkscape:connector-curvature="0"
     d="M 35.726319,15.70249 24,3.996889 12.273681,15.70249 c -3.2319891,3.231989 -4.8479827,7.541307 -4.8479827,11.684883 0,4.143575 1.6159936,8.515048 4.8479827,11.747036 3.231989,3.23199 7.479154,4.868701 11.726319,4.868701 4.247165,0 8.49433,-1.636711 11.726319,-4.868701 3.231989,-3.231988 4.847983,-7.603461 4.847983,-11.747036 0,-4.143576 -1.615994,-8.452894 -4.847983,-11.684883 M 11.569273,28.133217 c 0,-4.143576 1.284509,-6.774746 3.646347,-9.115865 L 24,10.04651 l 8.78438,9.07443 c 2.361838,2.320402 3.646347,4.868701 3.646347,9.012277 z"
     id="path2-6"
     style="fill:#707070;fill-opacity:1;stroke-width:2.0717876" />
</svg>
